<?xml version="1.0" encoding="utf-8"?>
<!-- Generator: Adobe Illustrator 25.3.1, SVG Export Plug-In . SVG Version: 6.00 Build 0)  -->
<svg version="1.1" id="Layer_1" xmlns="http://www.w3.org/2000/svg" xmlns:xlink="http://www.w3.org/1999/xlink" x="0px" y="0px"
	 viewBox="0 0 800 800" style="enable-background:new 0 0 800 800;" xml:space="preserve">
<style type="text/css">
	.st0{fill:#FFFFFF;}
</style>
<g>
	<path class="st0" d="M675,50H125c-41.4,0-75,33.6-75,75v550c0,41.4,33.6,75,75,75h550c41.4,0,75-33.6,75-75V125
		C750,83.6,716.4,50,675,50z M700.3,426c0,52-42.6,94.6-94.6,94.6H463.9l-47.3,78c0,0,0,0-2.4,2.4c-2.4,4.7-7.1,7.1-14.2,7.1
		s-11.8-2.4-14.2-7.1c0-2.4-2.4-2.4-2.4-2.4l-47.3-78H194.3c-52,0-94.6-42.6-94.6-94.6V199c0-52,42.6-94.6,94.6-94.6h411.5
		c52,0,94.6,42.6,94.6,94.6V426z"/>
	<g>
		<g>
			<path class="st0" d="M233.3,269.9c0,0-16.6,0-30.7,14.2V225h-37.8v153.7h37.8v-11.8c0,0,9.5,16.6,30.7,16.6c0,0,52-2.4,52-56.8
				C285.3,326.7,282.9,269.9,233.3,269.9z M223.8,350.3c-14.2,0-23.6-9.5-23.6-23.6c0-14.2,9.5-23.6,23.6-23.6s23.6,9.5,23.6,23.6
				C247.5,340.9,238,350.3,223.8,350.3z"/>
			<path class="st0" d="M297.1,222.6v35.5c0,0,16.6,0,16.6,30.7v89.9h35.5v-99.3C349.2,279.4,349.2,222.6,297.1,222.6z"/>
			<path class="st0" d="M436.7,269.9c0,0-61.5,0-61.5,56.8c0,0-2.4,56.8,61.5,56.8c0,0,61.5,0,61.5-56.8
				C498.1,326.7,500.5,269.9,436.7,269.9z M436.7,350.3c-14.2,0-23.6-9.5-23.6-23.6c0-14.2,9.5-23.6,23.6-23.6s23.6,9.5,23.6,23.6
				C460.3,340.9,448.5,350.3,436.7,350.3z"/>
			<path class="st0" d="M599.8,274.7v9.5c0,0-9.5-14.2-30.7-14.2c0,0-52-2.4-52,56.8c0,0,0,54.4,49.7,54.4c0,0,21.3,0,33.1-14.2v9.5
				c0,0,2.4,26-23.6,26h-9.5v33.1h14.2c0,0,54.4,0,54.4-56.8V274.7H599.8z M578.5,350.3c-14.2,0-23.6-9.5-23.6-23.6
				c0-14.2,9.5-23.6,23.6-23.6s23.6,9.5,23.6,23.6C602.2,340.9,590.4,350.3,578.5,350.3z"/>
		</g>
	</g>
</g>
</svg>
